<!-- Generated by IcoMoon.io -->
<svg version="1.1" xmlns="http://www.w3.org/2000/svg" width="32" height="32" viewBox="0 0 32 32">
<title>0</title>
<path fill="#e4e4e4" d="M16 30.68c-0.005 0-0.012 0-0.018 0-8.107 0-14.68-6.572-14.68-14.68 0-4.065 1.652-7.744 4.322-10.402l0-0c2.66-2.657 6.333-4.3 10.389-4.3 8.12 0 14.702 6.582 14.702 14.702 0 4.063-1.648 7.741-4.313 10.402l-0 0c-2.63 2.642-6.27 4.278-10.293 4.278-0.039 0-0.077-0-0.116-0l0.006 0z"></path>
<path fill="#fff" d="M16 2.64c-7.378 0-13.36 5.981-13.36 13.36s5.981 13.36 13.36 13.36c7.378 0 13.36-5.981 13.36-13.36v0c-0.008-7.375-5.984-13.352-13.359-13.36h-0.001zM16 0c8.837 0 16 7.163 16 16s-7.163 16-16 16c-8.837 0-16-7.163-16-16v0c0-8.837 7.163-16 16-16v0z"></path>
<path fill="#fff" d="M25.082 11.881l-9.98 9.98c-0.241 0.253-0.581 0.411-0.957 0.411s-0.716-0.158-0.957-0.41l-0.001-0.001-5.109-5.162c-0.245-0.245-0.396-0.583-0.396-0.957 0-0.748 0.606-1.354 1.354-1.354 0.374 0 0.712 0.152 0.957 0.396v0l4.172 4.172 9.030-9.030c0.24-0.249 0.577-0.404 0.951-0.404s0.71 0.155 0.95 0.404l0 0c0.262 0.242 0.426 0.587 0.426 0.971 0 0.39-0.169 0.74-0.438 0.982l-0.001 0.001z"></path>
</svg>
