<!-- Generated by IcoMoon.io -->
<svg version="1.1" xmlns="http://www.w3.org/2000/svg" width="32" height="32" viewBox="0 0 32 32">
<title>2</title>
<path fill="#e4e4e4" d="M32 16c0 8.837-7.163 16-16 16s-16-7.163-16-16c0-8.837 7.163-16 16-16s16 7.163 16 16z"></path>
<path fill="none" stroke="#fff" stroke-linejoin="miter" stroke-linecap="butt" stroke-miterlimit="4" stroke-width="2.6667" d="M30.667 16c0 8.1-6.567 14.667-14.667 14.667s-14.667-6.566-14.667-14.667c0-8.1 6.566-14.667 14.667-14.667s14.667 6.566 14.667 14.667z"></path>
<path fill="#fff" d="M22.853 23h-14.027c-1.284-0.006-2.322-1.049-2.322-2.333 0-0.427 0.115-0.827 0.315-1.171l-0.006 0.011 7.013-12.133c0.415-0.683 1.155-1.131 2-1.131s1.585 0.449 1.994 1.121l0.006 0.010 7.013 12.133c0.194 0.333 0.309 0.733 0.309 1.16 0 1.285-1.038 2.327-2.322 2.333h-0.001zM15.84 7.533c-0.008-0-0.018-0-0.027-0-0.359 0-0.672 0.197-0.837 0.489l-0.002 0.005-6.973 12.147c-0.088 0.142-0.141 0.315-0.141 0.5s0.052 0.358 0.143 0.504l-0.002-0.004c0.169 0.304 0.488 0.507 0.854 0.507 0.004 0 0.009-0 0.013-0h13.986c0.004 0 0.008 0 0.012 0 0.366 0 0.686-0.203 0.852-0.502l0.003-0.005c0.088-0.142 0.14-0.315 0.14-0.5s-0.052-0.358-0.143-0.504l0.002 0.004-7.013-12.173c-0.169-0.304-0.488-0.507-0.854-0.507-0.004 0-0.009 0-0.013 0h0.001z"></path>
<path fill="#fff" d="M15.6 18.76h0.587c0.012-0.001 0.027-0.001 0.041-0.001 0.162 0 0.308 0.067 0.412 0.175l0 0c0.114 0.112 0.185 0.268 0.187 0.44v0.547c0 0.004 0 0.009 0 0.013 0 0.339-0.275 0.613-0.613 0.613-0 0-0 0-0 0h-0.627c-0 0-0 0-0 0-0.341 0-0.619-0.273-0.627-0.613v-0.534c0.007-0.174 0.082-0.329 0.2-0.44l0-0c0.099-0.123 0.249-0.201 0.417-0.201 0.008 0 0.016 0 0.024 0.001l-0.001-0zM16.84 11.347l-0.293 4.827c-0.009 0.174-0.084 0.328-0.2 0.44l-0 0c-0.108 0.113-0.259 0.184-0.426 0.187h-0c-0 0-0.001 0-0.002 0-0.176 0-0.336-0.071-0.452-0.187l0 0c-0.103-0.118-0.171-0.27-0.186-0.437l-0-0.003-0.307-4.84c-0.001-0.010-0.001-0.022-0.001-0.034 0-0.16 0.067-0.304 0.174-0.406l0-0c0.111-0.131 0.271-0.216 0.452-0.227l0.002-0h0.627c0.174 0.004 0.33 0.080 0.44 0.2l0 0c0.11 0.102 0.178 0.248 0.178 0.409 0 0.025-0.002 0.049-0.005 0.074l0-0.003z"></path>
</svg>
