<!-- Generated by IcoMoon.io -->
<svg version="1.1" xmlns="http://www.w3.org/2000/svg" width="32" height="32" viewBox="0 0 32 32">
<title>Asset-5</title>
<path fill="#6c83a1" d="M13.648 31.557c-0.24 0.16-0.536 0.256-0.854 0.256-0.124 0-0.245-0.015-0.361-0.042l0.011 0.002c-6.192-1.471-10.969-6.277-12.376-12.372l-0.022-0.111c-0.028-0.112-0.045-0.24-0.045-0.372 0-0.867 0.703-1.57 1.57-1.57 0.735 0 1.352 0.505 1.523 1.187l0.002 0.011s0 0.040 0 0.057c1.158 5.027 5.026 8.92 9.949 10.095l0.091 0.018c0.704 0.162 1.221 0.783 1.221 1.525 0 0.55-0.284 1.034-0.714 1.313l-0.006 0.004z"></path>
<path fill="#6c83a1" d="M2.46 14c-0.241 0.159-0.537 0.254-0.855 0.254-0.548 0-1.031-0.282-1.311-0.708l-0.004-0.006c-0.16-0.24-0.255-0.535-0.255-0.852 0-0.131 0.016-0.259 0.047-0.38l-0.002 0.011c1.526-6.173 6.37-10.913 12.487-12.264l0.11-0.020c0.099-0.022 0.213-0.035 0.33-0.035 0.867 0 1.569 0.703 1.569 1.569 0 0.75-0.526 1.377-1.229 1.532l-0.010 0.002c-5.052 1.105-8.985 4.945-10.208 9.857l-0.019 0.092c-0.1 0.399-0.341 0.73-0.665 0.945l-0.006 0.004z"></path>
<path fill="#30e649" d="M24.517 29.716c-1.504 0.992-3.255 1.763-5.131 2.216l-0.113 0.023c-0.157 0.058-0.339 0.092-0.528 0.092-0.866 0-1.568-0.702-1.568-1.568 0-0.802 0.602-1.463 1.379-1.557l0.008-0.001c5.017-1.205 8.883-5.113 10.006-10.064l0.017-0.090c0.155-0.715 0.783-1.243 1.534-1.243 0.866 0 1.568 0.702 1.568 1.568 0 0.125-0.015 0.246-0.042 0.362l0.002-0.011c-0.975 4.332-3.555 7.938-7.068 10.234l-0.063 0.039z"></path>
<path fill="#30e649" d="M31.136 14.068c-0.238 0.153-0.529 0.243-0.841 0.243-0.557 0-1.046-0.289-1.326-0.726l-0.004-0.006c-0.090-0.139-0.162-0.3-0.208-0.471l-0.003-0.012c-1.251-4.994-5.181-8.824-10.139-9.91l-0.089-0.016c-0.715-0.156-1.242-0.784-1.242-1.534 0-0.866 0.702-1.569 1.569-1.569 0.116 0 0.229 0.013 0.337 0.036l-0.010-0.002c6.236 1.36 11.091 6.101 12.595 12.165l0.024 0.114c0.031 0.117 0.049 0.251 0.049 0.389 0 0.548-0.282 1.031-0.708 1.311l-0.006 0.004z"></path>
</svg>
