<!-- Generated by IcoMoon.io -->
<svg version="1.1" xmlns="http://www.w3.org/2000/svg" width="27" height="32" viewBox="0 0 27 32">
<title>Asset-1</title>
<path fill="#474747" d="M21.869 21.869l-8.604 8.604-8.604-8.604c-2.215-2.207-3.585-5.261-3.585-8.634 0-6.732 5.457-12.189 12.189-12.189s12.189 5.457 12.189 12.189c0 3.373-1.37 6.427-3.585 8.634l-0 0z"></path>
<path fill="#fff" d="M22.622 3.883c-2.36-2.196-5.536-3.544-9.026-3.544-7.326 0-13.265 5.939-13.265 13.265 0 3.49 1.348 6.665 3.552 9.034l-0.007-0.008 9.389 9.371 9.357-9.371c2.397-2.4 3.879-5.713 3.879-9.373s-1.482-6.973-3.879-9.373l0 0zM13.265 30.473l-8.604-8.604c-2.215-2.207-3.585-5.261-3.585-8.634 0-6.732 5.457-12.189 12.189-12.189s12.189 5.457 12.189 12.189c0 3.373-1.37 6.427-3.585 8.634l-0 0z"></path>
<path fill="#fff" d="M20.983 13.376l-0.606 0.606c-0.091 0.094-0.218 0.152-0.358 0.152s-0.268-0.058-0.358-0.152l-0-0-1.972-1.972-4.026 4.367-3.585 3.879c-0.101 0.105-0.241 0.173-0.397 0.179l-0.001 0c-0.003 0-0.007 0-0.012 0-0.163 0-0.311-0.066-0.419-0.172l0 0-1.362-1.344c-0.106-0.106-0.172-0.253-0.172-0.416 0-0.006 0-0.013 0-0.019l-0 0.001c0.003-0.168 0.077-0.318 0.193-0.423l0.001-0 8.299-7.546-1.434-1.434c-0.092-0.092-0.149-0.218-0.149-0.358s0.057-0.267 0.149-0.358l1.793-1.793c0.091-0.094 0.218-0.152 0.358-0.152s0.268 0.058 0.358 0.152l0 0 3.284 3.287c0.073 0.074 0.124 0.17 0.143 0.276l0 0.003 0.409 2.807c0.004 0.024 0.006 0.052 0.006 0.080 0 0.136-0.054 0.26-0.143 0.351l0-0z"></path>
<path fill="#fff" d="M13.623 12.34l-1.972 1.793-1.696-1.879c-0.428 0.244-0.94 0.387-1.486 0.387-0.003 0-0.007 0-0.010 0h0.001c-1.704-0.008-3.083-1.392-3.083-3.097 0 0 0-0 0-0v0c0-0.002 0-0.005 0-0.008 0-0.309 0.046-0.607 0.131-0.888l-0.006 0.022 1.57 1.57c0.162 0.162 0.386 0.262 0.633 0.262s0.471-0.1 0.633-0.262l0.932-0.932c0.163-0.162 0.263-0.387 0.263-0.635s-0.101-0.472-0.263-0.635l-0-0-1.524-1.513c0.212-0.050 0.455-0.079 0.706-0.079 0.004 0 0.008 0 0.012 0h-0.001c1.709 0 3.094 1.385 3.094 3.094 0 0.001 0 0.003 0 0.004v-0c0 0.015 0 0.034 0 0.052 0 0.267-0.031 0.526-0.091 0.774l0.005-0.023z"></path>
<path fill="#fff" d="M19.761 19.054l-1.352 1.348c-0.137 0.15-0.333 0.244-0.552 0.244-0.204 0-0.389-0.082-0.524-0.215l0 0-3.406-3.771 2.022-2.198 3.836 3.51c0.136 0.135 0.221 0.322 0.221 0.529 0 0.219-0.095 0.416-0.245 0.553l-0.001 0.001z"></path>
</svg>
