<!-- Generated by IcoMoon.io -->
<svg version="1.1" xmlns="http://www.w3.org/2000/svg" width="27" height="32" viewBox="0 0 27 32">
<title>Asset-20</title>
<path fill="#289a31" stroke="#edeeec" stroke-linejoin="miter" stroke-linecap="butt" stroke-miterlimit="10" stroke-width="0.9261" d="M22.994 21.596l-9.724 9.724-9.724-9.724c-7.121-8.052-1.079-21.267 9.719-21.133v0c10.631-0.282 16.887 13.238 9.728 21.133z"></path>
<path fill="#fff" d="M10.84 4.459c-0.542-0.611-2.065-0.366-2.815-0.412v5.936h1.023v-2.236c0.968 0.125 2.209-0.301 2.199-1.421 0-0.588 0.097-1.463-0.407-1.866zM10.251 6.339c0 0.611-0.787 0.523-1.204 0.519v-1.898c1.222-0.139 1.273 0.319 1.204 1.38z"></path>
<path fill="#fff" d="M14.377 4.047l-0.861 4.63-0.852-4.63h-1.088l1.218 5.936h1.389l1.269-5.936z"></path>
<path fill="#fff" d="M19.202 6.080c0.607-2.246-3.047-2.959-3.241-0.676v3.241c0.324 2.375 3.88 1.519 3.241-0.829h-1.065v0.824c0 0.667-1.171 0.667-1.181 0 0.069-0.25-0.176-3.551 0.176-3.616 0.82-0.551 1.13 0.394 1.005 1.060z"></path>
<path fill="#fff" d="M22.721 17.637c-1.15 4.221-4.948 7.273-9.46 7.273s-8.31-3.052-9.444-7.204l-0.016-0.069c-0.011-0.040-0.018-0.087-0.018-0.134 0-0.289 0.234-0.523 0.523-0.523 0.001 0 0.003 0 0.004 0h2.94c0.481 0.001 0.896 0.288 1.080 0.701l0.003 0.008 1.445 3.301c0.165 0.367 0.528 0.619 0.949 0.62h5.061c0.423-0.001 0.787-0.252 0.951-0.614l0.003-0.007 1.445-3.301c0.187-0.421 0.601-0.708 1.082-0.708 0 0 0.001 0 0.001 0h2.954c0.284 0.009 0.512 0.242 0.512 0.528 0 0.046-0.006 0.091-0.017 0.134l0.001-0.004z"></path>
<path fill="none" stroke="#fff" stroke-linejoin="miter" stroke-linecap="butt" stroke-miterlimit="10" stroke-width="1.3891" d="M16.942 15.9c0 2.033-1.648 3.681-3.681 3.681s-3.681-1.648-3.681-3.681c0-2.033 1.648-3.681 3.681-3.681s3.681 1.648 3.681 3.681z"></path>
</svg>
