<!-- Generated by IcoMoon.io -->
<svg version="1.1" xmlns="http://www.w3.org/2000/svg" width="32" height="32" viewBox="0 0 32 32">
<title>check-green</title>
<path fill="#59a925" d="M32 16c0 8.837-7.163 16-16 16s-16-7.163-16-16c0-8.837 7.163-16 16-16s16 7.163 16 16z"></path>
<path fill="#fff" d="M24.626 13.19l-8.928 8.928c-0.194 0.194-0.462 0.315-0.759 0.315s-0.565-0.12-0.759-0.315l-4.936-4.932c-0.195-0.195-0.315-0.464-0.315-0.761 0-0.594 0.482-1.076 1.076-1.076 0.297 0 0.566 0.12 0.761 0.315v0l4.173 4.173 8.166-8.169c0.195-0.195 0.464-0.315 0.761-0.315 0.594 0 1.076 0.482 1.076 1.076 0 0.297-0.12 0.566-0.315 0.761v0z"></path>
</svg>
