<!-- Generated by IcoMoon.io -->
<svg version="1.1" xmlns="http://www.w3.org/2000/svg" width="32" height="32" viewBox="0 0 32 32">
<title>flag_09_black</title>
<path stroke="#fff" stroke-linejoin="miter" stroke-linecap="butt" stroke-miterlimit="10" stroke-width="0.611" fill="#000" d="M16.003 0.306c0 0-0 0-0 0-8.666 0-15.691 7.025-15.691 15.691 0 5.129 2.461 9.683 6.266 12.546l0.040 0.029c0.462 0.352 0.985 0.699 1.529 1.013l0.072 0.038c2.225 1.302 4.899 2.071 7.753 2.071 0.011 0 0.022 0 0.033-0h-0.002c8.535-0.174 15.388-7.134 15.388-15.694s-6.853-15.521-15.372-15.694l-0.016-0zM16.003 30.57c-0.003 0-0.007 0-0.011 0-2.885 0-5.573-0.843-7.831-2.295l0.057 0.035v-8.646c1.35-0.576 2.921-0.913 4.569-0.917h0.001c2.597 0 5.945 1.222 8.011 1.222 1.573-0.070 3.050-0.393 4.419-0.93l-0.093 0.032v-10.883c-1.442 0.507-3.11 0.844-4.842 0.939l-0.047 0.002c-2.194 0-6.061-1.149-8.060-1.149-1.438 0.056-2.783 0.399-3.998 0.974l0.063-0.027v-1.1c0-0.442-0.358-0.8-0.8-0.8s-0.8 0.358-0.8 0.8v19.309c-3.183-2.689-5.191-6.683-5.191-11.145 0-8.042 6.519-14.561 14.561-14.561s14.561 6.519 14.561 14.561c0 8.042-6.519 14.561-14.561 14.561-0.003 0-0.007 0-0.010 0h0z"></path>
</svg>
