<!-- Generated by IcoMoon.io -->
<svg version="1.1" xmlns="http://www.w3.org/2000/svg" width="32" height="32" viewBox="0 0 32 32">
<title>Layer-2-1</title>
<path fill="#e2261c" d="M32 16c0 8.837-7.163 16-16 16s-16-7.163-16-16c0-8.837 7.163-16 16-16s16 7.163 16 16z"></path>
<path fill="#fff" d="M22.854 23h-14.027c-1.284-0.006-2.322-1.049-2.322-2.333 0-0.427 0.115-0.827 0.315-1.171l-0.006 0.011 7.013-12.134c0.415-0.683 1.155-1.132 2-1.132s1.585 0.449 1.994 1.121l0.006 0.010 7.013 12.134c0.194 0.333 0.309 0.733 0.309 1.16 0 1.285-1.038 2.327-2.321 2.333h-0.001zM15.84 7.533c-0.008-0-0.018-0-0.028-0-0.358 0-0.67 0.196-0.835 0.486l-0.002 0.005-6.971 12.149c-0.088 0.142-0.141 0.315-0.141 0.5s0.052 0.358 0.143 0.504l-0.002-0.004c0.168 0.304 0.487 0.507 0.853 0.507 0.005 0 0.010-0 0.014-0h13.983c0.004 0 0.009 0 0.014 0 0.366 0 0.685-0.203 0.851-0.502l0.003-0.005c0.088-0.142 0.14-0.315 0.14-0.5s-0.052-0.358-0.143-0.504l0.002 0.004-7.014-12.173c-0.168-0.304-0.487-0.507-0.853-0.507-0.005 0-0.010 0-0.014 0h0.001z"></path>
<path fill="#fff" d="M15.6 18.759h0.587c0.013-0.001 0.028-0.002 0.043-0.002 0.161 0 0.306 0.066 0.41 0.173l0 0c0.114 0.112 0.185 0.268 0.187 0.44v0.547c0 0.005 0 0.010 0 0.015 0 0.339-0.274 0.613-0.613 0.613-0 0-0 0-0 0h-0.629c-0 0-0 0-0 0-0.342 0-0.62-0.273-0.628-0.613v-0.534c0.007-0.174 0.082-0.329 0.2-0.44l0-0c0.099-0.123 0.248-0.201 0.417-0.201 0.008 0 0.016 0 0.024 0.001l-0.001-0zM16.84 11.346l-0.291 4.827c-0.009 0.174-0.084 0.328-0.2 0.44l-0 0c-0.108 0.113-0.259 0.184-0.426 0.187h-0c-0 0-0.001 0-0.001 0-0.176 0-0.336-0.071-0.452-0.187v0c-0.103-0.118-0.172-0.27-0.187-0.437l-0-0.003-0.307-4.84c-0.001-0.011-0.001-0.023-0.001-0.036 0-0.159 0.066-0.302 0.172-0.404l0-0c0.111-0.131 0.271-0.216 0.452-0.227l0.002-0h0.629c0.174 0.004 0.33 0.080 0.44 0.2l0 0c0.109 0.102 0.176 0.247 0.176 0.408 0 0.025-0.002 0.051-0.005 0.075l0-0.003z"></path>
</svg>
