<!-- Generated by IcoMoon.io -->
<svg version="1.1" xmlns="http://www.w3.org/2000/svg" width="32" height="32" viewBox="0 0 32 32">
<title>Layer-2</title>
<path fill="#f8c219" d="M16 30.68c-8.090-0.023-14.639-6.587-14.639-14.68 0-8.107 6.572-14.68 14.68-14.68s14.68 6.572 14.68 14.68c0 4.064-1.651 7.741-4.319 10.399l-0 0c-2.63 2.642-6.27 4.278-10.292 4.278-0.039 0-0.078-0-0.116-0l0.006 0z"></path>
<path fill="#fff" d="M12.779 19.525l-0.528-0.541 0.569-0.502c0.009-0.076 0.015-0.164 0.015-0.253 0-0.269-0.049-0.527-0.139-0.765l0.005 0.015c-0.066-0.24-0.104-0.516-0.104-0.801 0-0.743 0.258-1.426 0.69-1.964l-0.005 0.006 0.752-0.766 0.541 0.541-0.766 0.766c-0.27 0.379-0.432 0.852-0.432 1.362 0 0.191 0.023 0.377 0.066 0.555l-0.003-0.016c0.224 0.832 0.29 1.32-0.092 1.743z"></path>
<path fill="#fff" d="M16.251 22.971l-0.528-0.528 0.37-0.383c0.335-0.327 0.793-0.528 1.299-0.528 0.007 0 0.015 0 0.022 0h-0.001c0.524-0.028 0.988-0.26 1.319-0.619l0.001-0.001 3.419-3.419 0.541 0.528-3.419 3.432c-0.463 0.492-1.11 0.806-1.83 0.832l-0.005 0c-0.016-0.001-0.034-0.001-0.052-0.001-0.301 0-0.575 0.116-0.78 0.306l0.001-0.001z"></path>
<path fill="#fff" d="M14.655 25.334l-5.098-5.096 2.244-2.244 5.096 5.096zM10.695 20.238l3.96 3.96 1.175-1.175-4.026-3.96z"></path>
<path fill="#fff" d="M18.384 14.063l0.756-0.756 0.542 0.542-0.756 0.756-0.542-0.542z"></path>
<path fill="#fff" d="M19.523 15.207l0.756-0.756 0.542 0.542-0.756 0.756-0.542-0.542z"></path>
<path fill="#fff" d="M20.663 16.346l0.756-0.756 0.542 0.542-0.756 0.756-0.542-0.542z"></path>
<path fill="#fff" d="M22.72 18.035l-0.528-0.541c0.099-0.111 0.16-0.259 0.16-0.421 0-0.066-0.010-0.13-0.029-0.191l0.001 0.005c-0.11-0.327-0.375-0.575-0.706-0.659l-0.007-0.002-0.488-0.092 0.185-0.422c0-0.005 0-0.011 0-0.017 0-0.131-0.050-0.25-0.133-0.34l0 0c-0.124-0.163-0.319-0.268-0.537-0.268-0.025 0-0.049 0.001-0.073 0.004l0.003-0-0.607 0.092 0.198-0.594c0.002-0.016 0.003-0.035 0.003-0.054 0-0.124-0.052-0.236-0.135-0.316l-0-0c-0.134-0.173-0.342-0.283-0.575-0.283-0.008 0-0.015 0-0.023 0l0.001-0-0.436 0.079v-0.449c-0.022-0.302-0.216-0.553-0.483-0.658l-0.005-0.002c-0.080-0.036-0.174-0.057-0.272-0.057-0.195 0-0.37 0.083-0.493 0.215l-0 0-2.851 2.851-0.541-0.528 2.891-2.851c0.26-0.275 0.628-0.445 1.035-0.445 0.203 0 0.396 0.042 0.571 0.119l-0.009-0.004c0.461 0.161 0.814 0.524 0.961 0.979l0.003 0.011c0.37 0.061 0.687 0.252 0.908 0.525l0.002 0.003c0.152 0.163 0.26 0.37 0.303 0.6l0.001 0.007c0.36 0.072 0.664 0.272 0.868 0.55l0.003 0.004c0.158 0.19 0.26 0.431 0.277 0.696l0 0.004c0.456 0.202 0.801 0.586 0.947 1.057l0.003 0.012c0.036 0.115 0.057 0.247 0.057 0.384 0 0.395-0.174 0.75-0.45 0.992l-0.002 0.001z"></path>
<path fill="#fff" d="M14.944 15.38l-1.491-1.518c-0.354 0.149-0.766 0.236-1.199 0.236-0.859 0-1.638-0.342-2.209-0.897l0.001 0.001c-0.62-0.621-1.003-1.478-1.003-2.424 0-0.212 0.019-0.419 0.056-0.62l-0.003 0.021c0.064-0.356 0.371-0.623 0.741-0.623 0.055 0 0.109 0.006 0.161 0.017l-0.005-0.001c0.159 0.025 0.296 0.101 0.398 0.211l0 0 1.32 1.32 1.069-1.069-1.319-1.32c-0.141-0.137-0.228-0.328-0.228-0.54 0-0.090 0.016-0.177 0.045-0.257l-0.002 0.005c0.077-0.29 0.31-0.511 0.602-0.568l0.005-0.001c0.18-0.033 0.387-0.053 0.599-0.053 0.947 0 1.804 0.383 2.425 1.003l-0-0c0.575 0.57 0.931 1.36 0.931 2.233 0 0.418-0.082 0.818-0.23 1.183l0.008-0.021 1.547 1.504-0.541 0.528-1.558-1.479c-0.134-0.138-0.216-0.326-0.216-0.533 0-0.093 0.017-0.182 0.047-0.264l-0.002 0.005c0.113-0.27 0.179-0.585 0.179-0.914 0-0.675-0.275-1.285-0.72-1.726l-0-0c-0.479-0.483-1.142-0.783-1.876-0.783-0.168 0-0.331 0.016-0.49 0.045l0.016-0.003 1.32 1.32c0.135 0.14 0.218 0.331 0.218 0.541s-0.083 0.401-0.218 0.541l0-0-1.083 1.072c-0.135 0.141-0.325 0.228-0.535 0.228s-0.4-0.088-0.534-0.228l-0-0-1.32-1.32c-0.034 0.159-0.054 0.342-0.054 0.53 0 0.726 0.293 1.383 0.767 1.86l-0-0c0.432 0.444 1.036 0.72 1.704 0.72 0.338 0 0.66-0.071 0.951-0.198l-0.015 0.006c0.076-0.026 0.164-0.041 0.256-0.041 0.212 0 0.405 0.080 0.55 0.212l-0.001-0.001 1.494 1.519z"></path>
<path fill="#fff" d="M23.325 23.102c-0.006 0-0.013 0-0.020 0-0.41 0-0.781-0.167-1.049-0.436l-0-0-2.362-2.336 0.541-0.541 2.363 2.337c0.138 0.134 0.327 0.217 0.535 0.217s0.397-0.083 0.535-0.218l-0 0c0.141-0.135 0.228-0.325 0.228-0.535s-0.088-0.4-0.228-0.534l-0-0-2.363-2.351 0.541-0.541 2.361 2.35c0.276 0.275 0.447 0.655 0.447 1.076s-0.171 0.801-0.447 1.076l-0 0c-0.28 0.269-0.661 0.435-1.080 0.435-0 0-0.001 0-0.001 0h0z"></path>
</svg>
