<!-- Generated by IcoMoon.io -->
<svg version="1.1" xmlns="http://www.w3.org/2000/svg" width="32" height="32" viewBox="0 0 32 32">
<title>Layer-2-2</title>
<path fill="#b0b0b0" d="M16 30.68c-8.090-0.023-14.639-6.587-14.639-14.68 0-8.107 6.572-14.68 14.68-14.68s14.68 6.572 14.68 14.68c0 4.064-1.651 7.741-4.319 10.399l-0 0c-2.63 2.642-6.27 4.278-10.292 4.278-0.039 0-0.078-0-0.116-0l0.006 0z"></path>
<path fill="#fff" d="M25.082 11.881l-9.98 9.981c-0.241 0.253-0.581 0.411-0.957 0.411s-0.716-0.158-0.957-0.41l-0.001-0.001-5.11-5.163c-0.236-0.243-0.382-0.576-0.382-0.942 0-0.748 0.606-1.354 1.354-1.354 0.366 0 0.699 0.146 0.942 0.382l4.171 4.171 9.030-9.030c0.24-0.249 0.577-0.404 0.951-0.404s0.71 0.155 0.95 0.404l0 0c0.262 0.242 0.426 0.587 0.426 0.971 0 0.39-0.169 0.74-0.438 0.982l-0.001 0.001z"></path>
</svg>
