<!-- Generated by IcoMoon.io -->
<svg version="1.1" xmlns="http://www.w3.org/2000/svg" width="32" height="32" viewBox="0 0 32 32">
<title>red-flame</title>
<path fill="#e2261c" d="M32 16c0 8.837-7.163 16-16 16s-16-7.163-16-16c0-8.837 7.163-16 16-16s16 7.163 16 16z"></path>
<path fill="#fff" d="M21.047 11.708l-1.813 2.444c1.252-7.534-1.206-8.652-3.752-11.027 1.162 2.139-1.421 5.351-3.020 7.29-2.664 2.849-3.13 5.38-2.664 7.46 0.264 1.088 0.722 2.042 1.339 2.87l-0.015-0.021 0.673 0.844 4.663 5.815 3.996-4.988c0.962-1.191 3.449-3.737 0.592-10.687zM16.458 22.942c-1.864 0-3.375-1.511-3.375-3.375v0c0.042-0.732 0.271-1.404 0.639-1.977l-0.010 0.016c0.249 0.379 0.584 0.682 0.977 0.889l0.014 0.007c0-3.123 1.221-5.306 2.072-5.92-0.090 2.195 2.272 3.749 2.942 6.038 0.073 0.261 0.115 0.561 0.115 0.871 0 0.009-0 0.018-0 0.027v-0.001c-0.003 1.873-1.506 3.395-3.372 3.427l-0.003 0z"></path>
</svg>
