<!-- Generated by IcoMoon.io -->
<svg version="1.1" xmlns="http://www.w3.org/2000/svg" width="32" height="32" viewBox="0 0 32 32">
<title>yellow_flame</title>
<path fill="#f4c217" d="M32 16c0 8.837-7.163 16-16 16s-16-7.163-16-16c0-8.837 7.163-16 16-16s16 7.163 16 16z"></path>
<path fill="#fff" d="M20.986 11.773l-1.823 2.456c1.258-7.576-1.213-8.7-3.773-11.088 1.168 2.151-1.429 5.38-3.036 7.33-2.679 2.865-3.148 5.41-2.679 7.501 0.265 1.094 0.726 2.053 1.347 2.886l-0.015-0.021 0.677 0.848 4.688 5.849 4.019-5.016c0.967-1.198 3.468-3.758 0.595-10.746zM16.372 23.070c-1.874 0-3.393-1.519-3.393-3.393v0c0.043-0.737 0.272-1.412 0.642-1.988l-0.010 0.016c0.251 0.381 0.587 0.686 0.983 0.894l0.014 0.007c0-3.14 1.228-5.336 2.084-5.954-0.104 2.545 3.073 4.234 3.073 6.973-0.004 1.883-1.515 3.412-3.39 3.446l-0.003 0z"></path>
</svg>
