<svg aria-hidden="true" style="position: absolute; width: 0; height: 0; overflow: hidden;" version="1.1" xmlns="http://www.w3.org/2000/svg" xmlns:xlink="http://www.w3.org/1999/xlink">
<defs>
<symbol id="icon-yellow_flame" viewBox="0 0 32 32">
<path fill="#f4c217" style="fill: var(--color1, #f4c217)" d="M32 16c0 8.837-7.163 16-16 16s-16-7.163-16-16c0-8.837 7.163-16 16-16s16 7.163 16 16z"></path>
<path fill="#fff" style="fill: var(--color2, #fff)" d="M20.986 11.773l-1.823 2.456c1.258-7.576-1.213-8.7-3.773-11.088 1.168 2.151-1.429 5.38-3.036 7.33-2.679 2.865-3.148 5.41-2.679 7.501 0.265 1.094 0.726 2.053 1.347 2.886l-0.015-0.021 0.677 0.848 4.688 5.849 4.019-5.016c0.967-1.198 3.468-3.758 0.595-10.746zM16.372 23.070c-1.874 0-3.393-1.519-3.393-3.393v0c0.043-0.737 0.272-1.412 0.642-1.988l-0.010 0.016c0.251 0.381 0.587 0.686 0.983 0.894l0.014 0.007c0-3.14 1.228-5.336 2.084-5.954-0.104 2.545 3.073 4.234 3.073 6.973-0.004 1.883-1.515 3.412-3.39 3.446l-0.003 0z"></path>
</symbol>
<symbol id="icon-small-red-flame" viewBox="0 0 21 32">
<path fill="#e2261c" style="fill: var(--color3, #e2261c)" d="M10.473 32c-5.784 0-10.473-4.689-10.473-10.473v0c0.133-2.26 0.836-4.332 1.965-6.105l-0.031 0.052c0.757 1.226 1.797 2.211 3.033 2.88l0.042 0.021c-0.106-9.671 3.781-16.44 6.431-18.374-0.348 7.872 9.487 13.075 9.487 21.536-0.096 5.736-4.718 10.362-10.444 10.463l-0.010 0z"></path>
</symbol>
<symbol id="icon-statusAsset-105" viewBox="0 0 16 32">
<path fill="#92a2b1" style="fill: var(--color4, #92a2b1)" d="M0 16l16-16v32z"></path>
</symbol>
<symbol id="icon-statusAsset-98" viewBox="0 0 32 32">
<path fill="#59a925" style="fill: var(--color5, #59a925)" d="M32 16c0 8.837-7.163 16-16 16s-16-7.163-16-16c0-8.837 7.163-16 16-16s16 7.163 16 16z"></path>
<path fill="#fff" style="fill: var(--color2, #fff)" d="M24.626 13.19l-8.928 8.928c-0.194 0.194-0.462 0.315-0.759 0.315s-0.565-0.12-0.759-0.315l-4.936-4.932c-0.195-0.195-0.315-0.464-0.315-0.761 0-0.594 0.482-1.076 1.076-1.076 0.297 0 0.566 0.12 0.761 0.315v0l4.173 4.173 8.166-8.169c0.195-0.195 0.464-0.315 0.761-0.315 0.594 0 1.076 0.482 1.076 1.076 0 0.297-0.12 0.566-0.315 0.761v0z"></path>
</symbol>
<symbol id="icon-Asset-20" viewBox="0 0 27 32">
<path fill="#289a31" style="fill: var(--color6, #289a31); stroke: var(--color7, #edeeec)" stroke="#edeeec" stroke-linejoin="miter" stroke-linecap="butt" stroke-miterlimit="10" stroke-width="0.9261" d="M22.994 21.596l-9.724 9.724-9.724-9.724c-7.121-8.052-1.079-21.267 9.719-21.133v0c10.631-0.282 16.887 13.238 9.728 21.133z"></path>
<path fill="#fff" style="fill: var(--color2, #fff)" d="M10.84 4.459c-0.542-0.611-2.065-0.366-2.815-0.412v5.936h1.023v-2.236c0.968 0.125 2.209-0.301 2.199-1.421 0-0.588 0.097-1.463-0.407-1.866zM10.251 6.339c0 0.611-0.787 0.523-1.204 0.519v-1.898c1.222-0.139 1.273 0.319 1.204 1.38z"></path>
<path fill="#fff" style="fill: var(--color2, #fff)" d="M14.377 4.047l-0.861 4.63-0.852-4.63h-1.088l1.218 5.936h1.389l1.269-5.936z"></path>
<path fill="#fff" style="fill: var(--color2, #fff)" d="M19.202 6.080c0.607-2.246-3.047-2.959-3.241-0.676v3.241c0.324 2.375 3.88 1.519 3.241-0.829h-1.065v0.824c0 0.667-1.171 0.667-1.181 0 0.069-0.25-0.176-3.551 0.176-3.616 0.82-0.551 1.13 0.394 1.005 1.060z"></path>
<path fill="#fff" style="fill: var(--color2, #fff)" d="M22.721 17.637c-1.15 4.221-4.948 7.273-9.46 7.273s-8.31-3.052-9.444-7.204l-0.016-0.069c-0.011-0.040-0.018-0.087-0.018-0.134 0-0.289 0.234-0.523 0.523-0.523 0.001 0 0.003 0 0.004 0h2.94c0.481 0.001 0.896 0.288 1.080 0.701l0.003 0.008 1.445 3.301c0.165 0.367 0.528 0.619 0.949 0.62h5.061c0.423-0.001 0.787-0.252 0.951-0.614l0.003-0.007 1.445-3.301c0.187-0.421 0.601-0.708 1.082-0.708 0 0 0.001 0 0.001 0h2.954c0.284 0.009 0.512 0.242 0.512 0.528 0 0.046-0.006 0.091-0.017 0.134l0.001-0.004z"></path>
<path fill="none" stroke="#fff" style="stroke: var(--color2, #fff)" stroke-linejoin="miter" stroke-linecap="butt" stroke-miterlimit="10" stroke-width="1.3891" d="M16.942 15.9c0 2.033-1.648 3.681-3.681 3.681s-3.681-1.648-3.681-3.681c0-2.033 1.648-3.681 3.681-3.681s3.681 1.648 3.681 3.681z"></path>
</symbol>
<symbol id="icon-Asset-18" viewBox="0 0 27 32">
<path fill="#f2791c" style="fill: var(--color8, #f2791c); stroke: var(--color7, #edeeec)" stroke="#edeeec" stroke-linejoin="miter" stroke-linecap="butt" stroke-miterlimit="10" stroke-width="0.9261" d="M22.994 21.596l-9.724 9.724-9.724-9.724c-7.121-8.052-1.079-21.267 9.719-21.133v0c10.631-0.282 16.887 13.238 9.728 21.133z"></path>
<path fill="#fff" style="fill: var(--color2, #fff)" d="M10.84 4.459c-0.542-0.611-2.065-0.366-2.815-0.412v5.936h1.023v-2.236c0.968 0.125 2.209-0.301 2.199-1.421 0-0.588 0.097-1.463-0.407-1.866zM10.251 6.339c0 0.611-0.787 0.523-1.204 0.519v-1.898c1.222-0.139 1.273 0.319 1.204 1.38z"></path>
<path fill="#fff" style="fill: var(--color2, #fff)" d="M14.377 4.047l-0.861 4.63-0.852-4.63h-1.088l1.218 5.936h1.389l1.269-5.936z"></path>
<path fill="#fff" style="fill: var(--color2, #fff)" d="M19.202 6.080c0.607-2.246-3.047-2.959-3.241-0.676v3.241c0.324 2.375 3.88 1.519 3.241-0.829h-1.065v0.824c0 0.667-1.171 0.667-1.181 0 0.069-0.25-0.176-3.551 0.176-3.616 0.82-0.551 1.13 0.394 1.005 1.060z"></path>
<path fill="#fff" style="fill: var(--color2, #fff)" d="M22.721 17.637c-1.15 4.221-4.948 7.273-9.46 7.273s-8.31-3.052-9.444-7.204l-0.016-0.069c-0.011-0.040-0.018-0.087-0.018-0.134 0-0.289 0.234-0.523 0.523-0.523 0.001 0 0.003 0 0.004 0h2.94c0.481 0.001 0.896 0.288 1.080 0.701l0.003 0.008 1.445 3.301c0.165 0.367 0.528 0.619 0.949 0.62h5.061c0.423-0.001 0.787-0.252 0.951-0.614l0.003-0.007 1.445-3.301c0.187-0.421 0.601-0.708 1.082-0.708 0 0 0.001 0 0.001 0h2.954c0.284 0.009 0.512 0.242 0.512 0.528 0 0.046-0.006 0.091-0.017 0.134l0.001-0.004z"></path>
<path fill="none" stroke="#fff" style="stroke: var(--color2, #fff)" stroke-linejoin="miter" stroke-linecap="butt" stroke-miterlimit="10" stroke-width="1.3891" d="M16.942 15.9c0 2.033-1.648 3.681-3.681 3.681s-3.681-1.648-3.681-3.681c0-2.033 1.648-3.681 3.681-3.681s3.681 1.648 3.681 3.681z"></path>
</symbol>
<symbol id="icon-red-flame" viewBox="0 0 32 32">
<path fill="#e2261c" style="fill: var(--color3, #e2261c)" d="M32 16c0 8.837-7.163 16-16 16s-16-7.163-16-16c0-8.837 7.163-16 16-16s16 7.163 16 16z"></path>
<path fill="#fff" style="fill: var(--color2, #fff)" d="M21.047 11.708l-1.813 2.444c1.252-7.534-1.206-8.652-3.752-11.027 1.162 2.139-1.421 5.351-3.020 7.29-2.664 2.849-3.13 5.38-2.664 7.46 0.264 1.088 0.722 2.042 1.339 2.87l-0.015-0.021 0.673 0.844 4.663 5.815 3.996-4.988c0.962-1.191 3.449-3.737 0.592-10.687zM16.458 22.942c-1.864 0-3.375-1.511-3.375-3.375v0c0.042-0.732 0.271-1.404 0.639-1.977l-0.010 0.016c0.249 0.379 0.584 0.682 0.977 0.889l0.014 0.007c0-3.123 1.221-5.306 2.072-5.92-0.090 2.195 2.272 3.749 2.942 6.038 0.073 0.261 0.115 0.561 0.115 0.871 0 0.009-0 0.018-0 0.027v-0.001c-0.003 1.873-1.506 3.395-3.372 3.427l-0.003 0z"></path>
</symbol>
<symbol id="icon-flag_09_black" viewBox="0 0 32 32">
<path stroke-linejoin="miter" stroke-linecap="butt" stroke-miterlimit="10" stroke-width="0.611" d="M16.003 0.306c0 0-0 0-0 0-8.666 0-15.691 7.025-15.691 15.691 0 5.129 2.461 9.683 6.266 12.546l0.040 0.029c0.462 0.352 0.985 0.699 1.529 1.013l0.072 0.038c2.225 1.302 4.899 2.071 7.753 2.071 0.011 0 0.022 0 0.033-0h-0.002c8.535-0.174 15.388-7.134 15.388-15.694s-6.853-15.521-15.372-15.694l-0.016-0zM16.003 30.57c-0.003 0-0.007 0-0.011 0-2.885 0-5.573-0.843-7.831-2.295l0.057 0.035v-8.646c1.35-0.576 2.921-0.913 4.569-0.917h0.001c2.597 0 5.945 1.222 8.011 1.222 1.573-0.070 3.050-0.393 4.419-0.93l-0.093 0.032v-10.883c-1.442 0.507-3.11 0.844-4.842 0.939l-0.047 0.002c-2.194 0-6.061-1.149-8.060-1.149-1.438 0.056-2.783 0.399-3.998 0.974l0.063-0.027v-1.1c0-0.442-0.358-0.8-0.8-0.8s-0.8 0.358-0.8 0.8v19.309c-3.183-2.689-5.191-6.683-5.191-11.145 0-8.042 6.519-14.561 14.561-14.561s14.561 6.519 14.561 14.561c0 8.042-6.519 14.561-14.561 14.561-0.003 0-0.007 0-0.010 0h0z"></path>
</symbol>
<symbol id="icon-Layer-2-2" viewBox="0 0 32 32">
<path fill="#b0b0b0" style="fill: var(--color9, #b0b0b0)" d="M16 30.68c-8.090-0.023-14.639-6.587-14.639-14.68 0-8.107 6.572-14.68 14.68-14.68s14.68 6.572 14.68 14.68c0 4.064-1.651 7.741-4.319 10.399l-0 0c-2.63 2.642-6.27 4.278-10.292 4.278-0.039 0-0.078-0-0.116-0l0.006 0z"></path>
<path fill="#fff" style="fill: var(--color2, #fff)" d="M25.082 11.881l-9.98 9.981c-0.241 0.253-0.581 0.411-0.957 0.411s-0.716-0.158-0.957-0.41l-0.001-0.001-5.11-5.163c-0.236-0.243-0.382-0.576-0.382-0.942 0-0.748 0.606-1.354 1.354-1.354 0.366 0 0.699 0.146 0.942 0.382l4.171 4.171 9.030-9.030c0.24-0.249 0.577-0.404 0.951-0.404s0.71 0.155 0.95 0.404l0 0c0.262 0.242 0.426 0.587 0.426 0.971 0 0.39-0.169 0.74-0.438 0.982l-0.001 0.001z"></path>
</symbol>
<symbol id="icon-Layer-2-1" viewBox="0 0 32 32">
<path fill="#e2261c" style="fill: var(--color3, #e2261c)" d="M32 16c0 8.837-7.163 16-16 16s-16-7.163-16-16c0-8.837 7.163-16 16-16s16 7.163 16 16z"></path>
<path fill="#fff" style="fill: var(--color2, #fff)" d="M22.854 23h-14.027c-1.284-0.006-2.322-1.049-2.322-2.333 0-0.427 0.115-0.827 0.315-1.171l-0.006 0.011 7.013-12.134c0.415-0.683 1.155-1.132 2-1.132s1.585 0.449 1.994 1.121l0.006 0.010 7.013 12.134c0.194 0.333 0.309 0.733 0.309 1.16 0 1.285-1.038 2.327-2.321 2.333h-0.001zM15.84 7.533c-0.008-0-0.018-0-0.028-0-0.358 0-0.67 0.196-0.835 0.486l-0.002 0.005-6.971 12.149c-0.088 0.142-0.141 0.315-0.141 0.5s0.052 0.358 0.143 0.504l-0.002-0.004c0.168 0.304 0.487 0.507 0.853 0.507 0.005 0 0.010-0 0.014-0h13.983c0.004 0 0.009 0 0.014 0 0.366 0 0.685-0.203 0.851-0.502l0.003-0.005c0.088-0.142 0.14-0.315 0.14-0.5s-0.052-0.358-0.143-0.504l0.002 0.004-7.014-12.173c-0.168-0.304-0.487-0.507-0.853-0.507-0.005 0-0.010 0-0.014 0h0.001z"></path>
<path fill="#fff" style="fill: var(--color2, #fff)" d="M15.6 18.759h0.587c0.013-0.001 0.028-0.002 0.043-0.002 0.161 0 0.306 0.066 0.41 0.173l0 0c0.114 0.112 0.185 0.268 0.187 0.44v0.547c0 0.005 0 0.010 0 0.015 0 0.339-0.274 0.613-0.613 0.613-0 0-0 0-0 0h-0.629c-0 0-0 0-0 0-0.342 0-0.62-0.273-0.628-0.613v-0.534c0.007-0.174 0.082-0.329 0.2-0.44l0-0c0.099-0.123 0.248-0.201 0.417-0.201 0.008 0 0.016 0 0.024 0.001l-0.001-0zM16.84 11.346l-0.291 4.827c-0.009 0.174-0.084 0.328-0.2 0.44l-0 0c-0.108 0.113-0.259 0.184-0.426 0.187h-0c-0 0-0.001 0-0.001 0-0.176 0-0.336-0.071-0.452-0.187v0c-0.103-0.118-0.172-0.27-0.187-0.437l-0-0.003-0.307-4.84c-0.001-0.011-0.001-0.023-0.001-0.036 0-0.159 0.066-0.302 0.172-0.404l0-0c0.111-0.131 0.271-0.216 0.452-0.227l0.002-0h0.629c0.174 0.004 0.33 0.080 0.44 0.2l0 0c0.109 0.102 0.176 0.247 0.176 0.408 0 0.025-0.002 0.051-0.005 0.075l0-0.003z"></path>
</symbol>
<symbol id="icon-Layer-2" viewBox="0 0 32 32">
<path fill="#f8c219" style="fill: var(--color10, #f8c219)" d="M16 30.68c-8.090-0.023-14.639-6.587-14.639-14.68 0-8.107 6.572-14.68 14.68-14.68s14.68 6.572 14.68 14.68c0 4.064-1.651 7.741-4.319 10.399l-0 0c-2.63 2.642-6.27 4.278-10.292 4.278-0.039 0-0.078-0-0.116-0l0.006 0z"></path>
<path fill="#fff" style="fill: var(--color2, #fff)" d="M12.779 19.525l-0.528-0.541 0.569-0.502c0.009-0.076 0.015-0.164 0.015-0.253 0-0.269-0.049-0.527-0.139-0.765l0.005 0.015c-0.066-0.24-0.104-0.516-0.104-0.801 0-0.743 0.258-1.426 0.69-1.964l-0.005 0.006 0.752-0.766 0.541 0.541-0.766 0.766c-0.27 0.379-0.432 0.852-0.432 1.362 0 0.191 0.023 0.377 0.066 0.555l-0.003-0.016c0.224 0.832 0.29 1.32-0.092 1.743z"></path>
<path fill="#fff" style="fill: var(--color2, #fff)" d="M16.251 22.971l-0.528-0.528 0.37-0.383c0.335-0.327 0.793-0.528 1.299-0.528 0.007 0 0.015 0 0.022 0h-0.001c0.524-0.028 0.988-0.26 1.319-0.619l0.001-0.001 3.419-3.419 0.541 0.528-3.419 3.432c-0.463 0.492-1.11 0.806-1.83 0.832l-0.005 0c-0.016-0.001-0.034-0.001-0.052-0.001-0.301 0-0.575 0.116-0.78 0.306l0.001-0.001z"></path>
<path fill="#fff" style="fill: var(--color2, #fff)" d="M14.655 25.334l-5.098-5.096 2.244-2.244 5.096 5.096zM10.695 20.238l3.96 3.96 1.175-1.175-4.026-3.96z"></path>
<path fill="#fff" style="fill: var(--color2, #fff)" d="M18.384 14.063l0.756-0.756 0.542 0.542-0.756 0.756-0.542-0.542z"></path>
<path fill="#fff" style="fill: var(--color2, #fff)" d="M19.523 15.207l0.756-0.756 0.542 0.542-0.756 0.756-0.542-0.542z"></path>
<path fill="#fff" style="fill: var(--color2, #fff)" d="M20.663 16.346l0.756-0.756 0.542 0.542-0.756 0.756-0.542-0.542z"></path>
<path fill="#fff" style="fill: var(--color2, #fff)" d="M22.72 18.035l-0.528-0.541c0.099-0.111 0.16-0.259 0.16-0.421 0-0.066-0.010-0.13-0.029-0.191l0.001 0.005c-0.11-0.327-0.375-0.575-0.706-0.659l-0.007-0.002-0.488-0.092 0.185-0.422c0-0.005 0-0.011 0-0.017 0-0.131-0.050-0.25-0.133-0.34l0 0c-0.124-0.163-0.319-0.268-0.537-0.268-0.025 0-0.049 0.001-0.073 0.004l0.003-0-0.607 0.092 0.198-0.594c0.002-0.016 0.003-0.035 0.003-0.054 0-0.124-0.052-0.236-0.135-0.316l-0-0c-0.134-0.173-0.342-0.283-0.575-0.283-0.008 0-0.015 0-0.023 0l0.001-0-0.436 0.079v-0.449c-0.022-0.302-0.216-0.553-0.483-0.658l-0.005-0.002c-0.080-0.036-0.174-0.057-0.272-0.057-0.195 0-0.37 0.083-0.493 0.215l-0 0-2.851 2.851-0.541-0.528 2.891-2.851c0.26-0.275 0.628-0.445 1.035-0.445 0.203 0 0.396 0.042 0.571 0.119l-0.009-0.004c0.461 0.161 0.814 0.524 0.961 0.979l0.003 0.011c0.37 0.061 0.687 0.252 0.908 0.525l0.002 0.003c0.152 0.163 0.26 0.37 0.303 0.6l0.001 0.007c0.36 0.072 0.664 0.272 0.868 0.55l0.003 0.004c0.158 0.19 0.26 0.431 0.277 0.696l0 0.004c0.456 0.202 0.801 0.586 0.947 1.057l0.003 0.012c0.036 0.115 0.057 0.247 0.057 0.384 0 0.395-0.174 0.75-0.45 0.992l-0.002 0.001z"></path>
<path fill="#fff" style="fill: var(--color2, #fff)" d="M14.944 15.38l-1.491-1.518c-0.354 0.149-0.766 0.236-1.199 0.236-0.859 0-1.638-0.342-2.209-0.897l0.001 0.001c-0.62-0.621-1.003-1.478-1.003-2.424 0-0.212 0.019-0.419 0.056-0.62l-0.003 0.021c0.064-0.356 0.371-0.623 0.741-0.623 0.055 0 0.109 0.006 0.161 0.017l-0.005-0.001c0.159 0.025 0.296 0.101 0.398 0.211l0 0 1.32 1.32 1.069-1.069-1.319-1.32c-0.141-0.137-0.228-0.328-0.228-0.54 0-0.090 0.016-0.177 0.045-0.257l-0.002 0.005c0.077-0.29 0.31-0.511 0.602-0.568l0.005-0.001c0.18-0.033 0.387-0.053 0.599-0.053 0.947 0 1.804 0.383 2.425 1.003l-0-0c0.575 0.57 0.931 1.36 0.931 2.233 0 0.418-0.082 0.818-0.23 1.183l0.008-0.021 1.547 1.504-0.541 0.528-1.558-1.479c-0.134-0.138-0.216-0.326-0.216-0.533 0-0.093 0.017-0.182 0.047-0.264l-0.002 0.005c0.113-0.27 0.179-0.585 0.179-0.914 0-0.675-0.275-1.285-0.72-1.726l-0-0c-0.479-0.483-1.142-0.783-1.876-0.783-0.168 0-0.331 0.016-0.49 0.045l0.016-0.003 1.32 1.32c0.135 0.14 0.218 0.331 0.218 0.541s-0.083 0.401-0.218 0.541l0-0-1.083 1.072c-0.135 0.141-0.325 0.228-0.535 0.228s-0.4-0.088-0.534-0.228l-0-0-1.32-1.32c-0.034 0.159-0.054 0.342-0.054 0.53 0 0.726 0.293 1.383 0.767 1.86l-0-0c0.432 0.444 1.036 0.72 1.704 0.72 0.338 0 0.66-0.071 0.951-0.198l-0.015 0.006c0.076-0.026 0.164-0.041 0.256-0.041 0.212 0 0.405 0.080 0.55 0.212l-0.001-0.001 1.494 1.519z"></path>
<path fill="#fff" style="fill: var(--color2, #fff)" d="M23.325 23.102c-0.006 0-0.013 0-0.020 0-0.41 0-0.781-0.167-1.049-0.436l-0-0-2.362-2.336 0.541-0.541 2.363 2.337c0.138 0.134 0.327 0.217 0.535 0.217s0.397-0.083 0.535-0.218l-0 0c0.141-0.135 0.228-0.325 0.228-0.535s-0.088-0.4-0.228-0.534l-0-0-2.363-2.351 0.541-0.541 2.361 2.35c0.276 0.275 0.447 0.655 0.447 1.076s-0.171 0.801-0.447 1.076l-0 0c-0.28 0.269-0.661 0.435-1.080 0.435-0 0-0.001 0-0.001 0h0z"></path>
</symbol>
<symbol id="icon-Asset-3" viewBox="0 0 32 32">
<path fill="#6c83a1" style="fill: var(--color11, #6c83a1)" d="M13.648 31.557c-0.24 0.16-0.536 0.256-0.854 0.256-0.124 0-0.245-0.015-0.361-0.042l0.011 0.002c-6.192-1.471-10.969-6.277-12.376-12.372l-0.022-0.111c-0.028-0.112-0.045-0.24-0.045-0.372 0-0.867 0.703-1.57 1.57-1.57 0.735 0 1.352 0.505 1.523 1.187l0.002 0.011s0 0.040 0 0.057c1.158 5.027 5.026 8.92 9.949 10.095l0.091 0.018c0.704 0.162 1.221 0.783 1.221 1.525 0 0.55-0.284 1.034-0.714 1.313l-0.006 0.004z"></path>
<path fill="#6c83a1" style="fill: var(--color11, #6c83a1)" d="M2.46 14c-0.241 0.159-0.537 0.254-0.855 0.254-0.548 0-1.031-0.282-1.311-0.708l-0.004-0.006c-0.16-0.24-0.255-0.535-0.255-0.852 0-0.131 0.016-0.259 0.047-0.38l-0.002 0.011c1.526-6.173 6.37-10.913 12.487-12.264l0.11-0.020c0.099-0.022 0.213-0.035 0.33-0.035 0.867 0 1.569 0.703 1.569 1.569 0 0.75-0.526 1.377-1.229 1.532l-0.010 0.002c-5.052 1.105-8.985 4.945-10.208 9.857l-0.019 0.092c-0.1 0.399-0.341 0.73-0.665 0.945l-0.006 0.004z"></path>
<path fill="#6c83a1" style="fill: var(--color11, #6c83a1)" d="M24.517 29.716c-1.504 0.992-3.255 1.763-5.131 2.216l-0.113 0.023c-0.157 0.058-0.339 0.092-0.528 0.092-0.866 0-1.568-0.702-1.568-1.568 0-0.802 0.602-1.463 1.379-1.557l0.008-0.001c5.017-1.205 8.883-5.113 10.006-10.064l0.017-0.090c0.155-0.715 0.783-1.243 1.534-1.243 0.866 0 1.568 0.702 1.568 1.568 0 0.125-0.015 0.246-0.042 0.362l0.002-0.011c-0.975 4.332-3.555 7.938-7.068 10.234l-0.063 0.039z"></path>
<path fill="#6c83a1" style="fill: var(--color11, #6c83a1)" d="M31.136 14.068c-0.238 0.153-0.529 0.243-0.841 0.243-0.557 0-1.046-0.289-1.326-0.726l-0.004-0.006c-0.090-0.139-0.162-0.3-0.208-0.471l-0.003-0.012c-1.251-4.994-5.181-8.824-10.139-9.91l-0.089-0.016c-0.715-0.156-1.242-0.784-1.242-1.534 0-0.866 0.702-1.569 1.569-1.569 0.116 0 0.229 0.013 0.337 0.036l-0.010-0.002c6.236 1.36 11.091 6.101 12.595 12.165l0.024 0.114c0.031 0.117 0.049 0.251 0.049 0.389 0 0.548-0.282 1.031-0.708 1.311l-0.006 0.004z"></path>
</symbol>
<symbol id="icon-Asset-4" viewBox="0 0 32 32">
<path fill="#6c83a1" style="fill: var(--color11, #6c83a1)" d="M13.648 31.557c-0.24 0.16-0.536 0.256-0.854 0.256-0.124 0-0.245-0.015-0.361-0.042l0.011 0.002c-6.192-1.471-10.969-6.277-12.376-12.372l-0.022-0.111c-0.028-0.112-0.045-0.24-0.045-0.372 0-0.867 0.703-1.57 1.57-1.57 0.735 0 1.352 0.505 1.523 1.187l0.002 0.011s0 0.040 0 0.057c1.158 5.027 5.026 8.92 9.949 10.095l0.091 0.018c0.704 0.162 1.221 0.783 1.221 1.525 0 0.55-0.284 1.034-0.714 1.313l-0.006 0.004z"></path>
<path fill="#6c83a1" style="fill: var(--color11, #6c83a1)" d="M2.46 14c-0.241 0.159-0.537 0.254-0.855 0.254-0.548 0-1.031-0.282-1.311-0.708l-0.004-0.006c-0.16-0.24-0.255-0.535-0.255-0.852 0-0.131 0.016-0.259 0.047-0.38l-0.002 0.011c1.526-6.173 6.37-10.913 12.487-12.264l0.11-0.020c0.099-0.022 0.213-0.035 0.33-0.035 0.867 0 1.569 0.703 1.569 1.569 0 0.75-0.526 1.377-1.229 1.532l-0.010 0.002c-5.052 1.105-8.985 4.945-10.208 9.857l-0.019 0.092c-0.1 0.399-0.341 0.73-0.665 0.945l-0.006 0.004z"></path>
<path fill="#6c83a1" style="fill: var(--color11, #6c83a1)" d="M24.517 29.716c-1.504 0.992-3.255 1.763-5.131 2.216l-0.113 0.023c-0.157 0.058-0.339 0.092-0.528 0.092-0.866 0-1.568-0.702-1.568-1.568 0-0.802 0.602-1.463 1.379-1.557l0.008-0.001c5.017-1.205 8.883-5.113 10.006-10.064l0.017-0.090c0.155-0.715 0.783-1.243 1.534-1.243 0.866 0 1.568 0.702 1.568 1.568 0 0.125-0.015 0.246-0.042 0.362l0.002-0.011c-0.975 4.332-3.555 7.938-7.068 10.234l-0.063 0.039z"></path>
<path fill="#30e649" style="fill: var(--color12, #30e649)" d="M31.136 14.068c-0.238 0.153-0.529 0.243-0.841 0.243-0.557 0-1.046-0.289-1.326-0.726l-0.004-0.006c-0.090-0.139-0.162-0.3-0.208-0.471l-0.003-0.012c-1.251-4.994-5.181-8.824-10.139-9.91l-0.089-0.016c-0.715-0.156-1.242-0.784-1.242-1.534 0-0.866 0.702-1.569 1.569-1.569 0.116 0 0.229 0.013 0.337 0.036l-0.010-0.002c6.236 1.36 11.091 6.101 12.595 12.165l0.024 0.114c0.031 0.117 0.049 0.251 0.049 0.389 0 0.548-0.282 1.031-0.708 1.311l-0.006 0.004z"></path>
</symbol>
<symbol id="icon-Asset-5" viewBox="0 0 32 32">
<path fill="#6c83a1" style="fill: var(--color11, #6c83a1)" d="M13.648 31.557c-0.24 0.16-0.536 0.256-0.854 0.256-0.124 0-0.245-0.015-0.361-0.042l0.011 0.002c-6.192-1.471-10.969-6.277-12.376-12.372l-0.022-0.111c-0.028-0.112-0.045-0.24-0.045-0.372 0-0.867 0.703-1.57 1.57-1.57 0.735 0 1.352 0.505 1.523 1.187l0.002 0.011s0 0.040 0 0.057c1.158 5.027 5.026 8.92 9.949 10.095l0.091 0.018c0.704 0.162 1.221 0.783 1.221 1.525 0 0.55-0.284 1.034-0.714 1.313l-0.006 0.004z"></path>
<path fill="#6c83a1" style="fill: var(--color11, #6c83a1)" d="M2.46 14c-0.241 0.159-0.537 0.254-0.855 0.254-0.548 0-1.031-0.282-1.311-0.708l-0.004-0.006c-0.16-0.24-0.255-0.535-0.255-0.852 0-0.131 0.016-0.259 0.047-0.38l-0.002 0.011c1.526-6.173 6.37-10.913 12.487-12.264l0.11-0.020c0.099-0.022 0.213-0.035 0.33-0.035 0.867 0 1.569 0.703 1.569 1.569 0 0.75-0.526 1.377-1.229 1.532l-0.010 0.002c-5.052 1.105-8.985 4.945-10.208 9.857l-0.019 0.092c-0.1 0.399-0.341 0.73-0.665 0.945l-0.006 0.004z"></path>
<path fill="#30e649" style="fill: var(--color12, #30e649)" d="M24.517 29.716c-1.504 0.992-3.255 1.763-5.131 2.216l-0.113 0.023c-0.157 0.058-0.339 0.092-0.528 0.092-0.866 0-1.568-0.702-1.568-1.568 0-0.802 0.602-1.463 1.379-1.557l0.008-0.001c5.017-1.205 8.883-5.113 10.006-10.064l0.017-0.090c0.155-0.715 0.783-1.243 1.534-1.243 0.866 0 1.568 0.702 1.568 1.568 0 0.125-0.015 0.246-0.042 0.362l0.002-0.011c-0.975 4.332-3.555 7.938-7.068 10.234l-0.063 0.039z"></path>
<path fill="#30e649" style="fill: var(--color12, #30e649)" d="M31.136 14.068c-0.238 0.153-0.529 0.243-0.841 0.243-0.557 0-1.046-0.289-1.326-0.726l-0.004-0.006c-0.090-0.139-0.162-0.3-0.208-0.471l-0.003-0.012c-1.251-4.994-5.181-8.824-10.139-9.91l-0.089-0.016c-0.715-0.156-1.242-0.784-1.242-1.534 0-0.866 0.702-1.569 1.569-1.569 0.116 0 0.229 0.013 0.337 0.036l-0.010-0.002c6.236 1.36 11.091 6.101 12.595 12.165l0.024 0.114c0.031 0.117 0.049 0.251 0.049 0.389 0 0.548-0.282 1.031-0.708 1.311l-0.006 0.004z"></path>
</symbol>
<symbol id="icon-Asset-6" viewBox="0 0 32 32">
<path fill="#30e649" style="fill: var(--color12, #30e649)" d="M13.648 31.557c-0.24 0.16-0.536 0.256-0.854 0.256-0.124 0-0.245-0.015-0.361-0.042l0.011 0.002c-6.192-1.471-10.969-6.277-12.376-12.372l-0.022-0.111c-0.028-0.112-0.045-0.24-0.045-0.372 0-0.867 0.703-1.57 1.57-1.57 0.735 0 1.352 0.505 1.523 1.187l0.002 0.011s0 0.040 0 0.057c1.158 5.027 5.026 8.92 9.949 10.095l0.091 0.018c0.704 0.162 1.221 0.783 1.221 1.525 0 0.55-0.284 1.034-0.714 1.313l-0.006 0.004z"></path>
<path fill="#6c83a1" style="fill: var(--color11, #6c83a1)" d="M2.46 14c-0.241 0.159-0.537 0.254-0.855 0.254-0.548 0-1.031-0.282-1.311-0.708l-0.004-0.006c-0.16-0.24-0.255-0.535-0.255-0.852 0-0.131 0.016-0.259 0.047-0.38l-0.002 0.011c1.526-6.173 6.37-10.913 12.487-12.264l0.11-0.020c0.099-0.022 0.213-0.035 0.33-0.035 0.867 0 1.569 0.703 1.569 1.569 0 0.75-0.526 1.377-1.229 1.532l-0.010 0.002c-5.052 1.105-8.985 4.945-10.208 9.857l-0.019 0.092c-0.1 0.399-0.341 0.73-0.665 0.945l-0.006 0.004z"></path>
<path fill="#30e649" style="fill: var(--color12, #30e649)" d="M24.517 29.716c-1.504 0.992-3.255 1.763-5.131 2.216l-0.113 0.023c-0.157 0.058-0.339 0.092-0.528 0.092-0.866 0-1.568-0.702-1.568-1.568 0-0.802 0.602-1.463 1.379-1.557l0.008-0.001c5.017-1.205 8.883-5.113 10.006-10.064l0.017-0.090c0.155-0.715 0.783-1.243 1.534-1.243 0.866 0 1.568 0.702 1.568 1.568 0 0.125-0.015 0.246-0.042 0.362l0.002-0.011c-0.975 4.332-3.555 7.938-7.068 10.234l-0.063 0.039z"></path>
<path fill="#30e649" style="fill: var(--color12, #30e649)" d="M31.136 14.068c-0.238 0.153-0.529 0.243-0.841 0.243-0.557 0-1.046-0.289-1.326-0.726l-0.004-0.006c-0.090-0.139-0.162-0.3-0.208-0.471l-0.003-0.012c-1.251-4.994-5.181-8.824-10.139-9.91l-0.089-0.016c-0.715-0.156-1.242-0.784-1.242-1.534 0-0.866 0.702-1.569 1.569-1.569 0.116 0 0.229 0.013 0.337 0.036l-0.010-0.002c6.236 1.36 11.091 6.101 12.595 12.165l0.024 0.114c0.031 0.117 0.049 0.251 0.049 0.389 0 0.548-0.282 1.031-0.708 1.311l-0.006 0.004z"></path>
</symbol>
<symbol id="icon-Asset-7" viewBox="0 0 32 32">
<path fill="#30e649" style="fill: var(--color12, #30e649)" d="M13.648 31.557c-0.24 0.16-0.536 0.256-0.854 0.256-0.124 0-0.245-0.015-0.361-0.042l0.011 0.002c-6.192-1.471-10.969-6.277-12.376-12.372l-0.022-0.111c-0.028-0.112-0.045-0.24-0.045-0.372 0-0.867 0.703-1.57 1.57-1.57 0.735 0 1.352 0.505 1.523 1.187l0.002 0.011s0 0.040 0 0.057c1.158 5.027 5.026 8.92 9.949 10.095l0.091 0.018c0.704 0.162 1.221 0.783 1.221 1.525 0 0.55-0.284 1.034-0.714 1.313l-0.006 0.004z"></path>
<path fill="#30e649" style="fill: var(--color12, #30e649)" d="M2.46 14c-0.241 0.159-0.537 0.254-0.855 0.254-0.548 0-1.031-0.282-1.311-0.708l-0.004-0.006c-0.16-0.24-0.255-0.535-0.255-0.852 0-0.131 0.016-0.259 0.047-0.38l-0.002 0.011c1.526-6.173 6.37-10.913 12.487-12.264l0.11-0.020c0.099-0.022 0.213-0.035 0.33-0.035 0.867 0 1.569 0.703 1.569 1.569 0 0.75-0.526 1.377-1.229 1.532l-0.010 0.002c-5.052 1.105-8.985 4.945-10.208 9.857l-0.019 0.092c-0.1 0.399-0.341 0.73-0.665 0.945l-0.006 0.004z"></path>
<path fill="#30e649" style="fill: var(--color12, #30e649)" d="M24.517 29.716c-1.504 0.992-3.255 1.763-5.131 2.216l-0.113 0.023c-0.157 0.058-0.339 0.092-0.528 0.092-0.866 0-1.568-0.702-1.568-1.568 0-0.802 0.602-1.463 1.379-1.557l0.008-0.001c5.017-1.205 8.883-5.113 10.006-10.064l0.017-0.090c0.155-0.715 0.783-1.243 1.534-1.243 0.866 0 1.568 0.702 1.568 1.568 0 0.125-0.015 0.246-0.042 0.362l0.002-0.011c-0.975 4.332-3.555 7.938-7.068 10.234l-0.063 0.039z"></path>
<path fill="#30e649" style="fill: var(--color12, #30e649)" d="M31.136 14.068c-0.238 0.153-0.529 0.243-0.841 0.243-0.557 0-1.046-0.289-1.326-0.726l-0.004-0.006c-0.090-0.139-0.162-0.3-0.208-0.471l-0.003-0.012c-1.251-4.994-5.181-8.824-10.139-9.91l-0.089-0.016c-0.715-0.156-1.242-0.784-1.242-1.534 0-0.866 0.702-1.569 1.569-1.569 0.116 0 0.229 0.013 0.337 0.036l-0.010-0.002c6.236 1.36 11.091 6.101 12.595 12.165l0.024 0.114c0.031 0.117 0.049 0.251 0.049 0.389 0 0.548-0.282 1.031-0.708 1.311l-0.006 0.004z"></path>
</symbol>
<symbol id="icon-Asset-1" viewBox="0 0 27 32">
<path fill="#474747" style="fill: var(--color13, #474747)" d="M21.869 21.869l-8.604 8.604-8.604-8.604c-2.215-2.207-3.585-5.261-3.585-8.634 0-6.732 5.457-12.189 12.189-12.189s12.189 5.457 12.189 12.189c0 3.373-1.37 6.427-3.585 8.634l-0 0z"></path>
<path fill="#fff" style="fill: var(--color2, #fff)" d="M22.622 3.883c-2.36-2.196-5.536-3.544-9.026-3.544-7.326 0-13.265 5.939-13.265 13.265 0 3.49 1.348 6.665 3.552 9.034l-0.007-0.008 9.389 9.371 9.357-9.371c2.397-2.4 3.879-5.713 3.879-9.373s-1.482-6.973-3.879-9.373l0 0zM13.265 30.473l-8.604-8.604c-2.215-2.207-3.585-5.261-3.585-8.634 0-6.732 5.457-12.189 12.189-12.189s12.189 5.457 12.189 12.189c0 3.373-1.37 6.427-3.585 8.634l-0 0z"></path>
<path fill="#fff" style="fill: var(--color2, #fff)" d="M20.983 13.376l-0.606 0.606c-0.091 0.094-0.218 0.152-0.358 0.152s-0.268-0.058-0.358-0.152l-0-0-1.972-1.972-4.026 4.367-3.585 3.879c-0.101 0.105-0.241 0.173-0.397 0.179l-0.001 0c-0.003 0-0.007 0-0.012 0-0.163 0-0.311-0.066-0.419-0.172l0 0-1.362-1.344c-0.106-0.106-0.172-0.253-0.172-0.416 0-0.006 0-0.013 0-0.019l-0 0.001c0.003-0.168 0.077-0.318 0.193-0.423l0.001-0 8.299-7.546-1.434-1.434c-0.092-0.092-0.149-0.218-0.149-0.358s0.057-0.267 0.149-0.358l1.793-1.793c0.091-0.094 0.218-0.152 0.358-0.152s0.268 0.058 0.358 0.152l0 0 3.284 3.287c0.073 0.074 0.124 0.17 0.143 0.276l0 0.003 0.409 2.807c0.004 0.024 0.006 0.052 0.006 0.080 0 0.136-0.054 0.26-0.143 0.351l0-0z"></path>
<path fill="#fff" style="fill: var(--color2, #fff)" d="M13.623 12.34l-1.972 1.793-1.696-1.879c-0.428 0.244-0.94 0.387-1.486 0.387-0.003 0-0.007 0-0.010 0h0.001c-1.704-0.008-3.083-1.392-3.083-3.097 0 0 0-0 0-0v0c0-0.002 0-0.005 0-0.008 0-0.309 0.046-0.607 0.131-0.888l-0.006 0.022 1.57 1.57c0.162 0.162 0.386 0.262 0.633 0.262s0.471-0.1 0.633-0.262l0.932-0.932c0.163-0.162 0.263-0.387 0.263-0.635s-0.101-0.472-0.263-0.635l-0-0-1.524-1.513c0.212-0.050 0.455-0.079 0.706-0.079 0.004 0 0.008 0 0.012 0h-0.001c1.709 0 3.094 1.385 3.094 3.094 0 0.001 0 0.003 0 0.004v-0c0 0.015 0 0.034 0 0.052 0 0.267-0.031 0.526-0.091 0.774l0.005-0.023z"></path>
<path fill="#fff" style="fill: var(--color2, #fff)" d="M19.761 19.054l-1.352 1.348c-0.137 0.15-0.333 0.244-0.552 0.244-0.204 0-0.389-0.082-0.524-0.215l0 0-3.406-3.771 2.022-2.198 3.836 3.51c0.136 0.135 0.221 0.322 0.221 0.529 0 0.219-0.095 0.416-0.245 0.553l-0.001 0.001z"></path>
</symbol>
<symbol id="icon-chevron-small-down" viewBox="0 0 20 20">
<path d="M13.418 7.859c0.271-0.268 0.709-0.268 0.978 0s0.272 0.701 0 0.969l-3.908 3.83c-0.27 0.268-0.707 0.268-0.979 0l-3.908-3.83c-0.27-0.267-0.27-0.701 0-0.969s0.709-0.268 0.978 0l3.421 3.141 3.418-3.141z"></path>
</symbol>
<symbol id="icon-chevron-small-up" viewBox="0 0 20 20">
<path d="M6.582 12.141c-0.271 0.268-0.709 0.268-0.978 0s-0.272-0.701 0-0.969l3.908-3.83c0.27-0.268 0.707-0.268 0.979 0l3.908 3.83c0.27 0.267 0.27 0.701 0 0.969s-0.709 0.268-0.979 0l-3.42-3.141-3.418 3.141z"></path>
</symbol>
</defs>
</svg>
