<svg aria-hidden="true" style="position: absolute; width: 0; height: 0; overflow: hidden;" version="1.1" xmlns="http://www.w3.org/2000/svg" xmlns:xlink="http://www.w3.org/1999/xlink">
<defs>
<symbol id="icon-flag_09_black" viewBox="0 0 32 32">
<path stroke-linejoin="miter" stroke-linecap="butt" stroke-miterlimit="10" stroke-width="0.611" d="M16.003 0.306c0 0-0 0-0 0-8.666 0-15.691 7.025-15.691 15.691 0 5.129 2.461 9.683 6.266 12.546l0.040 0.029c0.462 0.352 0.985 0.699 1.529 1.013l0.072 0.038c2.225 1.302 4.899 2.071 7.753 2.071 0.011 0 0.022 0 0.033-0h-0.002c8.535-0.174 15.388-7.134 15.388-15.694s-6.853-15.521-15.372-15.694l-0.016-0zM16.003 30.57c-0.003 0-0.007 0-0.011 0-2.885 0-5.573-0.843-7.831-2.295l0.057 0.035v-8.646c1.35-0.576 2.921-0.913 4.569-0.917h0.001c2.597 0 5.945 1.222 8.011 1.222 1.573-0.070 3.050-0.393 4.419-0.93l-0.093 0.032v-10.883c-1.442 0.507-3.11 0.844-4.842 0.939l-0.047 0.002c-2.194 0-6.061-1.149-8.060-1.149-1.438 0.056-2.783 0.399-3.998 0.974l0.063-0.027v-1.1c0-0.442-0.358-0.8-0.8-0.8s-0.8 0.358-0.8 0.8v19.309c-3.183-2.689-5.191-6.683-5.191-11.145 0-8.042 6.519-14.561 14.561-14.561s14.561 6.519 14.561 14.561c0 8.042-6.519 14.561-14.561 14.561-0.003 0-0.007 0-0.010 0h0z"></path>
</symbol>
<symbol id="icon-Asset-3" viewBox="0 0 32 32">
<path fill="#6c83a1" style="fill: var(--color2, #6c83a1)" d="M13.648 31.557c-0.24 0.16-0.536 0.256-0.854 0.256-0.124 0-0.245-0.015-0.361-0.042l0.011 0.002c-6.192-1.471-10.969-6.277-12.376-12.372l-0.022-0.111c-0.028-0.112-0.045-0.24-0.045-0.372 0-0.867 0.703-1.57 1.57-1.57 0.735 0 1.352 0.505 1.523 1.187l0.002 0.011s0 0.040 0 0.057c1.158 5.027 5.026 8.92 9.949 10.095l0.091 0.018c0.704 0.162 1.221 0.783 1.221 1.525 0 0.55-0.284 1.034-0.714 1.313l-0.006 0.004z"></path>
<path fill="#6c83a1" style="fill: var(--color2, #6c83a1)" d="M2.46 14c-0.241 0.159-0.537 0.254-0.855 0.254-0.548 0-1.031-0.282-1.311-0.708l-0.004-0.006c-0.16-0.24-0.255-0.535-0.255-0.852 0-0.131 0.016-0.259 0.047-0.38l-0.002 0.011c1.526-6.173 6.37-10.913 12.487-12.264l0.11-0.020c0.099-0.022 0.213-0.035 0.33-0.035 0.867 0 1.569 0.703 1.569 1.569 0 0.75-0.526 1.377-1.229 1.532l-0.010 0.002c-5.052 1.105-8.985 4.945-10.208 9.857l-0.019 0.092c-0.1 0.399-0.341 0.73-0.665 0.945l-0.006 0.004z"></path>
<path fill="#6c83a1" style="fill: var(--color2, #6c83a1)" d="M24.517 29.716c-1.504 0.992-3.255 1.763-5.131 2.216l-0.113 0.023c-0.157 0.058-0.339 0.092-0.528 0.092-0.866 0-1.568-0.702-1.568-1.568 0-0.802 0.602-1.463 1.379-1.557l0.008-0.001c5.017-1.205 8.883-5.113 10.006-10.064l0.017-0.090c0.155-0.715 0.783-1.243 1.534-1.243 0.866 0 1.568 0.702 1.568 1.568 0 0.125-0.015 0.246-0.042 0.362l0.002-0.011c-0.975 4.332-3.555 7.938-7.068 10.234l-0.063 0.039z"></path>
<path fill="#6c83a1" style="fill: var(--color2, #6c83a1)" d="M31.136 14.068c-0.238 0.153-0.529 0.243-0.841 0.243-0.557 0-1.046-0.289-1.326-0.726l-0.004-0.006c-0.090-0.139-0.162-0.3-0.208-0.471l-0.003-0.012c-1.251-4.994-5.181-8.824-10.139-9.91l-0.089-0.016c-0.715-0.156-1.242-0.784-1.242-1.534 0-0.866 0.702-1.569 1.569-1.569 0.116 0 0.229 0.013 0.337 0.036l-0.010-0.002c6.236 1.36 11.091 6.101 12.595 12.165l0.024 0.114c0.031 0.117 0.049 0.251 0.049 0.389 0 0.548-0.282 1.031-0.708 1.311l-0.006 0.004z"></path>
</symbol>
<symbol id="icon-Asset-4" viewBox="0 0 32 32">
<path fill="#6c83a1" style="fill: var(--color2, #6c83a1)" d="M13.648 31.557c-0.24 0.16-0.536 0.256-0.854 0.256-0.124 0-0.245-0.015-0.361-0.042l0.011 0.002c-6.192-1.471-10.969-6.277-12.376-12.372l-0.022-0.111c-0.028-0.112-0.045-0.24-0.045-0.372 0-0.867 0.703-1.57 1.57-1.57 0.735 0 1.352 0.505 1.523 1.187l0.002 0.011s0 0.040 0 0.057c1.158 5.027 5.026 8.92 9.949 10.095l0.091 0.018c0.704 0.162 1.221 0.783 1.221 1.525 0 0.55-0.284 1.034-0.714 1.313l-0.006 0.004z"></path>
<path fill="#6c83a1" style="fill: var(--color2, #6c83a1)" d="M2.46 14c-0.241 0.159-0.537 0.254-0.855 0.254-0.548 0-1.031-0.282-1.311-0.708l-0.004-0.006c-0.16-0.24-0.255-0.535-0.255-0.852 0-0.131 0.016-0.259 0.047-0.38l-0.002 0.011c1.526-6.173 6.37-10.913 12.487-12.264l0.11-0.020c0.099-0.022 0.213-0.035 0.33-0.035 0.867 0 1.569 0.703 1.569 1.569 0 0.75-0.526 1.377-1.229 1.532l-0.010 0.002c-5.052 1.105-8.985 4.945-10.208 9.857l-0.019 0.092c-0.1 0.399-0.341 0.73-0.665 0.945l-0.006 0.004z"></path>
<path fill="#6c83a1" style="fill: var(--color2, #6c83a1)" d="M24.517 29.716c-1.504 0.992-3.255 1.763-5.131 2.216l-0.113 0.023c-0.157 0.058-0.339 0.092-0.528 0.092-0.866 0-1.568-0.702-1.568-1.568 0-0.802 0.602-1.463 1.379-1.557l0.008-0.001c5.017-1.205 8.883-5.113 10.006-10.064l0.017-0.090c0.155-0.715 0.783-1.243 1.534-1.243 0.866 0 1.568 0.702 1.568 1.568 0 0.125-0.015 0.246-0.042 0.362l0.002-0.011c-0.975 4.332-3.555 7.938-7.068 10.234l-0.063 0.039z"></path>
<path fill="#30e649" style="fill: var(--color3, #30e649)" d="M31.136 14.068c-0.238 0.153-0.529 0.243-0.841 0.243-0.557 0-1.046-0.289-1.326-0.726l-0.004-0.006c-0.090-0.139-0.162-0.3-0.208-0.471l-0.003-0.012c-1.251-4.994-5.181-8.824-10.139-9.91l-0.089-0.016c-0.715-0.156-1.242-0.784-1.242-1.534 0-0.866 0.702-1.569 1.569-1.569 0.116 0 0.229 0.013 0.337 0.036l-0.010-0.002c6.236 1.36 11.091 6.101 12.595 12.165l0.024 0.114c0.031 0.117 0.049 0.251 0.049 0.389 0 0.548-0.282 1.031-0.708 1.311l-0.006 0.004z"></path>
</symbol>
<symbol id="icon-Asset-5" viewBox="0 0 32 32">
<path fill="#6c83a1" style="fill: var(--color2, #6c83a1)" d="M13.648 31.557c-0.24 0.16-0.536 0.256-0.854 0.256-0.124 0-0.245-0.015-0.361-0.042l0.011 0.002c-6.192-1.471-10.969-6.277-12.376-12.372l-0.022-0.111c-0.028-0.112-0.045-0.24-0.045-0.372 0-0.867 0.703-1.57 1.57-1.57 0.735 0 1.352 0.505 1.523 1.187l0.002 0.011s0 0.040 0 0.057c1.158 5.027 5.026 8.92 9.949 10.095l0.091 0.018c0.704 0.162 1.221 0.783 1.221 1.525 0 0.55-0.284 1.034-0.714 1.313l-0.006 0.004z"></path>
<path fill="#6c83a1" style="fill: var(--color2, #6c83a1)" d="M2.46 14c-0.241 0.159-0.537 0.254-0.855 0.254-0.548 0-1.031-0.282-1.311-0.708l-0.004-0.006c-0.16-0.24-0.255-0.535-0.255-0.852 0-0.131 0.016-0.259 0.047-0.38l-0.002 0.011c1.526-6.173 6.37-10.913 12.487-12.264l0.11-0.020c0.099-0.022 0.213-0.035 0.33-0.035 0.867 0 1.569 0.703 1.569 1.569 0 0.75-0.526 1.377-1.229 1.532l-0.010 0.002c-5.052 1.105-8.985 4.945-10.208 9.857l-0.019 0.092c-0.1 0.399-0.341 0.73-0.665 0.945l-0.006 0.004z"></path>
<path fill="#30e649" style="fill: var(--color3, #30e649)" d="M24.517 29.716c-1.504 0.992-3.255 1.763-5.131 2.216l-0.113 0.023c-0.157 0.058-0.339 0.092-0.528 0.092-0.866 0-1.568-0.702-1.568-1.568 0-0.802 0.602-1.463 1.379-1.557l0.008-0.001c5.017-1.205 8.883-5.113 10.006-10.064l0.017-0.090c0.155-0.715 0.783-1.243 1.534-1.243 0.866 0 1.568 0.702 1.568 1.568 0 0.125-0.015 0.246-0.042 0.362l0.002-0.011c-0.975 4.332-3.555 7.938-7.068 10.234l-0.063 0.039z"></path>
<path fill="#30e649" style="fill: var(--color3, #30e649)" d="M31.136 14.068c-0.238 0.153-0.529 0.243-0.841 0.243-0.557 0-1.046-0.289-1.326-0.726l-0.004-0.006c-0.090-0.139-0.162-0.3-0.208-0.471l-0.003-0.012c-1.251-4.994-5.181-8.824-10.139-9.91l-0.089-0.016c-0.715-0.156-1.242-0.784-1.242-1.534 0-0.866 0.702-1.569 1.569-1.569 0.116 0 0.229 0.013 0.337 0.036l-0.010-0.002c6.236 1.36 11.091 6.101 12.595 12.165l0.024 0.114c0.031 0.117 0.049 0.251 0.049 0.389 0 0.548-0.282 1.031-0.708 1.311l-0.006 0.004z"></path>
</symbol>
<symbol id="icon-Asset-6" viewBox="0 0 32 32">
<path fill="#30e649" style="fill: var(--color3, #30e649)" d="M13.648 31.557c-0.24 0.16-0.536 0.256-0.854 0.256-0.124 0-0.245-0.015-0.361-0.042l0.011 0.002c-6.192-1.471-10.969-6.277-12.376-12.372l-0.022-0.111c-0.028-0.112-0.045-0.24-0.045-0.372 0-0.867 0.703-1.57 1.57-1.57 0.735 0 1.352 0.505 1.523 1.187l0.002 0.011s0 0.040 0 0.057c1.158 5.027 5.026 8.92 9.949 10.095l0.091 0.018c0.704 0.162 1.221 0.783 1.221 1.525 0 0.55-0.284 1.034-0.714 1.313l-0.006 0.004z"></path>
<path fill="#6c83a1" style="fill: var(--color2, #6c83a1)" d="M2.46 14c-0.241 0.159-0.537 0.254-0.855 0.254-0.548 0-1.031-0.282-1.311-0.708l-0.004-0.006c-0.16-0.24-0.255-0.535-0.255-0.852 0-0.131 0.016-0.259 0.047-0.38l-0.002 0.011c1.526-6.173 6.37-10.913 12.487-12.264l0.11-0.020c0.099-0.022 0.213-0.035 0.33-0.035 0.867 0 1.569 0.703 1.569 1.569 0 0.75-0.526 1.377-1.229 1.532l-0.010 0.002c-5.052 1.105-8.985 4.945-10.208 9.857l-0.019 0.092c-0.1 0.399-0.341 0.73-0.665 0.945l-0.006 0.004z"></path>
<path fill="#30e649" style="fill: var(--color3, #30e649)" d="M24.517 29.716c-1.504 0.992-3.255 1.763-5.131 2.216l-0.113 0.023c-0.157 0.058-0.339 0.092-0.528 0.092-0.866 0-1.568-0.702-1.568-1.568 0-0.802 0.602-1.463 1.379-1.557l0.008-0.001c5.017-1.205 8.883-5.113 10.006-10.064l0.017-0.090c0.155-0.715 0.783-1.243 1.534-1.243 0.866 0 1.568 0.702 1.568 1.568 0 0.125-0.015 0.246-0.042 0.362l0.002-0.011c-0.975 4.332-3.555 7.938-7.068 10.234l-0.063 0.039z"></path>
<path fill="#30e649" style="fill: var(--color3, #30e649)" d="M31.136 14.068c-0.238 0.153-0.529 0.243-0.841 0.243-0.557 0-1.046-0.289-1.326-0.726l-0.004-0.006c-0.090-0.139-0.162-0.3-0.208-0.471l-0.003-0.012c-1.251-4.994-5.181-8.824-10.139-9.91l-0.089-0.016c-0.715-0.156-1.242-0.784-1.242-1.534 0-0.866 0.702-1.569 1.569-1.569 0.116 0 0.229 0.013 0.337 0.036l-0.010-0.002c6.236 1.36 11.091 6.101 12.595 12.165l0.024 0.114c0.031 0.117 0.049 0.251 0.049 0.389 0 0.548-0.282 1.031-0.708 1.311l-0.006 0.004z"></path>
</symbol>
<symbol id="icon-Asset-7" viewBox="0 0 32 32">
<path fill="#30e649" style="fill: var(--color3, #30e649)" d="M13.648 31.557c-0.24 0.16-0.536 0.256-0.854 0.256-0.124 0-0.245-0.015-0.361-0.042l0.011 0.002c-6.192-1.471-10.969-6.277-12.376-12.372l-0.022-0.111c-0.028-0.112-0.045-0.24-0.045-0.372 0-0.867 0.703-1.57 1.57-1.57 0.735 0 1.352 0.505 1.523 1.187l0.002 0.011s0 0.040 0 0.057c1.158 5.027 5.026 8.92 9.949 10.095l0.091 0.018c0.704 0.162 1.221 0.783 1.221 1.525 0 0.55-0.284 1.034-0.714 1.313l-0.006 0.004z"></path>
<path fill="#30e649" style="fill: var(--color3, #30e649)" d="M2.46 14c-0.241 0.159-0.537 0.254-0.855 0.254-0.548 0-1.031-0.282-1.311-0.708l-0.004-0.006c-0.16-0.24-0.255-0.535-0.255-0.852 0-0.131 0.016-0.259 0.047-0.38l-0.002 0.011c1.526-6.173 6.37-10.913 12.487-12.264l0.11-0.020c0.099-0.022 0.213-0.035 0.33-0.035 0.867 0 1.569 0.703 1.569 1.569 0 0.75-0.526 1.377-1.229 1.532l-0.010 0.002c-5.052 1.105-8.985 4.945-10.208 9.857l-0.019 0.092c-0.1 0.399-0.341 0.73-0.665 0.945l-0.006 0.004z"></path>
<path fill="#30e649" style="fill: var(--color3, #30e649)" d="M24.517 29.716c-1.504 0.992-3.255 1.763-5.131 2.216l-0.113 0.023c-0.157 0.058-0.339 0.092-0.528 0.092-0.866 0-1.568-0.702-1.568-1.568 0-0.802 0.602-1.463 1.379-1.557l0.008-0.001c5.017-1.205 8.883-5.113 10.006-10.064l0.017-0.090c0.155-0.715 0.783-1.243 1.534-1.243 0.866 0 1.568 0.702 1.568 1.568 0 0.125-0.015 0.246-0.042 0.362l0.002-0.011c-0.975 4.332-3.555 7.938-7.068 10.234l-0.063 0.039z"></path>
<path fill="#30e649" style="fill: var(--color3, #30e649)" d="M31.136 14.068c-0.238 0.153-0.529 0.243-0.841 0.243-0.557 0-1.046-0.289-1.326-0.726l-0.004-0.006c-0.090-0.139-0.162-0.3-0.208-0.471l-0.003-0.012c-1.251-4.994-5.181-8.824-10.139-9.91l-0.089-0.016c-0.715-0.156-1.242-0.784-1.242-1.534 0-0.866 0.702-1.569 1.569-1.569 0.116 0 0.229 0.013 0.337 0.036l-0.010-0.002c6.236 1.36 11.091 6.101 12.595 12.165l0.024 0.114c0.031 0.117 0.049 0.251 0.049 0.389 0 0.548-0.282 1.031-0.708 1.311l-0.006 0.004z"></path>
</symbol>
<symbol id="icon-Asset-1" viewBox="0 0 27 32">
<path fill="#474747" style="fill: var(--color4, #474747)" d="M21.869 21.869l-8.604 8.604-8.604-8.604c-2.215-2.207-3.585-5.261-3.585-8.634 0-6.732 5.457-12.189 12.189-12.189s12.189 5.457 12.189 12.189c0 3.373-1.37 6.427-3.585 8.634l-0 0z"></path>
<path fill="#fff" style="fill: var(--color1, #fff)" d="M22.622 3.883c-2.36-2.196-5.536-3.544-9.026-3.544-7.326 0-13.265 5.939-13.265 13.265 0 3.49 1.348 6.665 3.552 9.034l-0.007-0.008 9.389 9.371 9.357-9.371c2.397-2.4 3.879-5.713 3.879-9.373s-1.482-6.973-3.879-9.373l0 0zM13.265 30.473l-8.604-8.604c-2.215-2.207-3.585-5.261-3.585-8.634 0-6.732 5.457-12.189 12.189-12.189s12.189 5.457 12.189 12.189c0 3.373-1.37 6.427-3.585 8.634l-0 0z"></path>
<path fill="#fff" style="fill: var(--color1, #fff)" d="M20.983 13.376l-0.606 0.606c-0.091 0.094-0.218 0.152-0.358 0.152s-0.268-0.058-0.358-0.152l-0-0-1.972-1.972-4.026 4.367-3.585 3.879c-0.101 0.105-0.241 0.173-0.397 0.179l-0.001 0c-0.003 0-0.007 0-0.012 0-0.163 0-0.311-0.066-0.419-0.172l0 0-1.362-1.344c-0.106-0.106-0.172-0.253-0.172-0.416 0-0.006 0-0.013 0-0.019l-0 0.001c0.003-0.168 0.077-0.318 0.193-0.423l0.001-0 8.299-7.546-1.434-1.434c-0.092-0.092-0.149-0.218-0.149-0.358s0.057-0.267 0.149-0.358l1.793-1.793c0.091-0.094 0.218-0.152 0.358-0.152s0.268 0.058 0.358 0.152l0 0 3.284 3.287c0.073 0.074 0.124 0.17 0.143 0.276l0 0.003 0.409 2.807c0.004 0.024 0.006 0.052 0.006 0.080 0 0.136-0.054 0.26-0.143 0.351l0-0z"></path>
<path fill="#fff" style="fill: var(--color1, #fff)" d="M13.623 12.34l-1.972 1.793-1.696-1.879c-0.428 0.244-0.94 0.387-1.486 0.387-0.003 0-0.007 0-0.010 0h0.001c-1.704-0.008-3.083-1.392-3.083-3.097 0 0 0-0 0-0v0c0-0.002 0-0.005 0-0.008 0-0.309 0.046-0.607 0.131-0.888l-0.006 0.022 1.57 1.57c0.162 0.162 0.386 0.262 0.633 0.262s0.471-0.1 0.633-0.262l0.932-0.932c0.163-0.162 0.263-0.387 0.263-0.635s-0.101-0.472-0.263-0.635l-0-0-1.524-1.513c0.212-0.050 0.455-0.079 0.706-0.079 0.004 0 0.008 0 0.012 0h-0.001c1.709 0 3.094 1.385 3.094 3.094 0 0.001 0 0.003 0 0.004v-0c0 0.015 0 0.034 0 0.052 0 0.267-0.031 0.526-0.091 0.774l0.005-0.023z"></path>
<path fill="#fff" style="fill: var(--color1, #fff)" d="M19.761 19.054l-1.352 1.348c-0.137 0.15-0.333 0.244-0.552 0.244-0.204 0-0.389-0.082-0.524-0.215l0 0-3.406-3.771 2.022-2.198 3.836 3.51c0.136 0.135 0.221 0.322 0.221 0.529 0 0.219-0.095 0.416-0.245 0.553l-0.001 0.001z"></path>
</symbol>
</defs>
</svg>
